# xmcd
#
# Track frame offsets: 
#        150
#        18924
#        40749
#        59966
#        78285
#        100551
#        120293
#        137328
#        156479
#        173843
#
# Disc length: 2544 seconds
#
# Revision: 0
# Processed by: cddbd v1.5.2PL0 Copyright (c) Steve Scherf et al.
# Submitted via: ExactAudioCopy v0.90b4
#
DISCID=7409ee0a
DTITLE=Ronald Nuñez - De Corazon A Corazon
DYEAR=2002
DGENRE=Latin
TTITLE0=No Te Puedo Perdonar
TTITLE1=Ya Regresé
TTITLE2=Vuelve
TTITLE3=Comprendeme
TTITLE4=El Cachimbo
TTITLE5=Ven Ahora
TTITLE6=Gente Mala
TTITLE7=Amor Amor
TTITLE8=Me Iré Para Siempre
TTITLE9=No Lo Haga
EXTD=
EXTT0=
EXTT1=
EXTT2=
EXTT3=
EXTT4=
EXTT5=
EXTT6=
EXTT7=
EXTT8=
EXTT9=
PLAYORDER=
